<svg width="110" height="128" viewBox="0 0 110 128" fill="none" xmlns="http://www.w3.org/2000/svg">
<g clip-path="url(#clip0_2015_2)">
<path fill-rule="evenodd" clip-rule="evenodd" d="M38.123 70.8776C35.8133 71.1705 34.3118 71.4181 33.2961 71.6167C32.2805 71.8153 31.4141 71.9291 31.3708 71.8696C31.3274 71.81 31.2926 64.2392 31.2933 55.0455C31.2943 42.9148 31.3454 37.7237 31.4796 36.1205C31.5813 34.9055 31.7973 33.1349 31.9597 32.1859C32.122 31.2369 32.4223 29.812 32.6269 29.0195C32.8316 28.227 33.2351 26.8827 33.5238 26.0321C33.8124 25.1816 34.31 23.8561 34.6295 23.0866C34.949 22.3171 35.5253 21.091 35.9101 20.362C36.2949 19.633 37.0303 18.3643 37.5442 17.5428C38.0581 16.7212 38.9336 15.4664 39.4898 14.7543C40.0459 14.0423 41.0436 12.8671 41.7069 12.1429C42.3703 11.4186 43.7662 10.0782 44.8091 9.16427C45.852 8.25031 47.4451 7.0079 48.3493 6.40337C49.2536 5.79885 50.6892 4.9178 51.5396 4.4455C52.39 3.9732 53.6822 3.32773 54.4111 3.01114C55.14 2.69455 56.4653 2.17301 57.3562 1.85217C58.2471 1.53135 59.7049 1.08106 60.5958 0.851551C61.4867 0.622025 63.0771 0.298278 64.1299 0.132071C65.1828 -0.0341178 66.972 -0.242285 68.1059 -0.330503C69.2397 -0.418739 70.8632 -0.451495 71.7136 -0.403278C72.564 -0.355079 73.9887 -0.247139 74.8796 -0.163416C75.7705 -0.079692 77.1952 0.119756 78.0456 0.279778C78.896 0.439818 80.2544 0.760654 81.0644 0.992768C81.8743 1.22488 83.299 1.68591 84.2303 2.01728C85.1617 2.34867 86.9194 3.1114 88.1363 3.71225C89.3532 4.31311 91.2418 5.40112 92.3331 6.13005C93.4245 6.85901 94.98 8.01508 95.7899 8.69913C96.5998 9.38317 97.9283 10.6303 98.7422 11.4705C99.556 12.3108 100.725 13.6321 101.341 14.4068C101.956 15.1815 102.847 16.4083 103.322 17.1329C103.796 17.8576 104.595 19.212 105.099 20.1426C105.602 21.0733 106.377 22.6632 106.822 23.6757C107.266 24.6882 107.859 26.312 108.138 27.284C108.418 28.256 108.816 29.8797 109.023 30.8922C109.23 31.9048 109.518 33.5561 109.663 34.5619C109.857 35.9081 109.926 37.3068 109.926 39.8638C109.926 42.312 109.85 43.9455 109.666 45.3989C109.522 46.5329 109.272 48.1089 109.11 48.9011C108.947 49.6933 108.58 51.1181 108.293 52.0675C108.007 53.0169 107.537 54.3901 107.249 55.1191C106.961 55.8481 106.371 57.1962 105.937 58.1148C105.503 59.0334 104.74 60.4704 104.241 61.308C103.742 62.1457 102.868 63.4486 102.298 64.2034C101.729 64.9582 100.715 66.2053 100.046 66.9748C99.3769 67.7443 98.2781 68.9126 97.6042 69.571C96.9303 70.2294 95.796 71.239 95.0835 71.8146C94.371 72.3902 93.0425 73.3578 92.1312 73.9647C91.22 74.5717 89.6493 75.4895 88.6409 76.0043C87.6324 76.5191 86.1778 77.2104 85.4084 77.5404C84.639 77.8704 83.2773 78.3746 82.3824 78.6609C81.4875 78.9472 80.2284 79.3171 79.5845 79.4829C78.9406 79.6488 77.6517 79.9264 76.7203 80.0999C75.0966 80.4024 74.4416 80.4202 60.8167 80.5332C53.0011 80.5981 46.3083 80.6893 45.9439 80.736C45.5794 80.7827 44.4198 80.8892 43.3669 80.9727C42.314 81.0562 40.4917 81.2518 39.3174 81.4074C38.143 81.5629 36.328 81.8607 35.2841 82.0691C34.2401 82.2774 32.6829 82.6132 31.8236 82.8153C30.9642 83.0173 29.6316 83.3861 28.8622 83.6349C28.0928 83.8837 26.8006 84.3497 25.9907 84.6704C25.1808 84.9912 23.7893 85.6206 22.8984 86.0691C22.0075 86.5176 20.7915 87.1791 20.1962 87.5393C19.601 87.8994 18.4636 88.6866 17.6688 89.2886C16.874 89.8906 15.6572 90.9207 14.9648 91.5779C14.2725 92.235 13.2499 93.3138 12.6925 93.9754C12.1352 94.6369 11.34 95.685 10.9255 96.3045C10.5111 96.9241 9.90231 97.9658 9.57275 98.6195C9.24316 99.2732 8.78337 100.257 8.55098 100.807C8.31859 101.356 7.95768 102.365 7.74898 103.049C7.54027 103.732 7.2871 104.826 7.18638 105.479C7.08569 106.132 7.01022 107.428 7.01871 108.359C7.02824 109.407 7.13302 110.474 7.29334 111.158C7.43592 111.765 7.73633 112.714 7.96093 113.266C8.18554 113.818 8.59008 114.634 8.85991 115.079C9.12976 115.524 9.77138 116.35 10.2858 116.914C10.8001 117.477 11.6391 118.237 12.1501 118.601C12.6612 118.966 13.5657 119.487 14.1602 119.759C14.7547 120.031 15.7059 120.372 16.274 120.516C16.9429 120.686 17.9029 120.782 18.9982 120.791C20.1152 120.8 21.0965 120.715 21.888 120.543C22.5472 120.399 23.5081 120.11 24.0233 119.901C24.5384 119.692 25.4196 119.213 25.9814 118.837C26.5432 118.461 27.4213 117.735 27.9328 117.224C28.4442 116.713 29.1185 115.918 29.4313 115.457C29.7441 114.996 30.1986 114.221 30.4413 113.735C30.684 113.249 31.0228 112.42 31.1942 111.894C31.3655 111.367 31.6065 110.307 31.7296 109.538C31.8527 108.768 31.9537 107.702 31.954 107.169C31.9543 106.636 31.9194 106.164 31.8764 106.121C31.8334 106.078 31.3861 106.155 30.8824 106.292C30.3787 106.429 28.624 106.957 26.9831 107.465C24.9772 108.087 23.8778 108.36 23.628 108.297C23.4237 108.246 23.1838 108.044 23.0951 107.85C22.9584 107.55 23.0134 107.341 23.4543 106.491C23.7406 105.939 24.3791 104.775 24.8732 103.905C25.3673 103.034 26.3695 101.263 27.1002 99.9675C27.831 98.6726 29.4375 95.8476 30.6703 93.6897C31.9031 91.5319 33.2481 89.1457 33.6591 88.387C34.0702 87.6283 34.5678 86.7583 34.7649 86.4536C35.0187 86.0613 35.2286 85.8998 35.4844 85.8998C35.7426 85.8998 35.9568 86.0677 36.2356 86.4889C36.4501 86.8129 36.9661 87.691 37.3822 88.4404C37.7984 89.1897 38.4296 90.3164 38.785 90.9441C39.1403 91.5718 39.9749 93.0463 40.6397 94.2208C41.3045 95.3954 42.0244 96.6615 42.2395 97.0346C42.4546 97.4076 43.3742 99.0158 44.283 100.608C45.1919 102.201 46.4095 104.346 46.9889 105.374C47.5682 106.403 48.0423 107.402 48.0423 107.594C48.0423 107.786 47.9354 108.051 47.8047 108.181C47.5977 108.388 47.4571 108.396 46.7124 108.242C46.2422 108.145 45.1647 107.832 44.3177 107.547C43.4708 107.261 42.0158 106.821 41.0844 106.569C40.1531 106.317 39.275 106.078 39.1333 106.039C38.8987 105.975 38.8756 106.121 38.8756 107.665C38.8756 108.672 38.7594 110.041 38.5894 111.035C38.4319 111.956 38.1259 113.272 37.9092 113.959C37.6925 114.646 37.2161 115.804 36.8505 116.533C36.4849 117.262 35.8183 118.417 35.3691 119.1C34.9073 119.801 33.844 121.054 32.9222 121.983C31.9805 122.932 30.7944 123.951 30.1139 124.397C29.466 124.821 28.4057 125.425 27.7578 125.741C27.1099 126.056 25.9834 126.508 25.2545 126.745C24.5255 126.983 23.3045 127.284 22.5411 127.415C21.6513 127.567 20.3826 127.647 19.0069 127.637C17.8266 127.628 16.3834 127.533 15.7999 127.427C15.2163 127.32 14.1637 127.057 13.4607 126.843C12.7578 126.628 11.627 126.189 10.948 125.866C10.2689 125.543 9.113 124.878 8.37926 124.387C7.6455 123.896 6.47056 122.921 5.76828 122.221C5.06599 121.52 4.06806 120.352 3.55065 119.624C3.03322 118.896 2.29145 117.638 1.90226 116.828C1.51307 116.018 1.02692 114.773 0.821909 114.062C0.616916 113.352 0.364719 112.192 0.261467 111.485C0.158215 110.778 0.0737305 109.239 0.0737305 108.065C0.0737305 106.709 0.168659 105.362 0.333783 104.374C0.476814 103.519 0.78416 102.153 1.01678 101.339C1.2494 100.525 1.70911 99.188 2.03833 98.3673C2.36757 97.5466 3.00258 96.1619 3.44945 95.2902C3.89634 94.4186 4.65115 93.1203 5.12682 92.4053C5.60249 91.6902 6.46375 90.5304 7.04075 89.828C7.61774 89.1255 8.67176 87.9796 9.383 87.2815C10.0942 86.5834 11.2725 85.5336 12.0014 84.9486C12.7303 84.3636 14.1882 83.3078 15.2411 82.6023C16.2939 81.8968 17.9796 80.8998 18.987 80.3866C19.9944 79.8735 21.5516 79.1391 22.4475 78.7546C23.3434 78.3702 24.883 77.7821 25.8689 77.4477C26.8548 77.1134 28.2795 76.6807 29.0349 76.4862C29.7903 76.2917 31.071 75.9982 31.881 75.8339C32.6909 75.6696 34.0824 75.4051 34.9733 75.246C35.8642 75.0869 37.2889 74.8516 38.1393 74.7231C38.9897 74.5946 40.2488 74.4252 40.9372 74.3466C41.6256 74.2681 43.2491 74.1291 44.5449 74.0379C45.8408 73.9467 48.2595 73.8194 49.9198 73.755C51.5801 73.6907 57.3452 73.637 62.731 73.6359C68.7985 73.6345 73.1025 73.5723 74.0455 73.4721C74.8826 73.3833 76.3405 73.1379 77.2852 72.9268C78.2298 72.7157 79.8311 72.2472 80.8435 71.8856C81.8559 71.524 83.5483 70.7987 84.6044 70.2738C85.6605 69.7489 87.1766 68.8925 87.9734 68.3707C88.7703 67.8489 90.0434 66.9171 90.8026 66.3001C91.5619 65.6831 92.8526 64.4724 93.6711 63.6097C94.4895 62.7469 95.5798 61.4778 96.0939 60.7892C96.6081 60.1007 97.528 58.709 98.1381 57.6964C98.7482 56.6839 99.6065 55.0602 100.045 54.0882C100.484 53.1162 101.11 51.4525 101.436 50.3911C101.762 49.3297 102.202 47.6401 102.414 46.6363C102.625 45.6325 102.871 43.883 102.959 42.7486C103.047 41.6142 103.081 39.6588 103.033 38.4033C102.977 36.9244 102.813 35.3944 102.567 34.0587C102.359 32.9247 102.019 31.4003 101.813 30.6713C101.608 29.9423 101.262 28.8161 101.044 28.1687C100.827 27.5213 100.176 26.0301 99.5968 24.855C99.0178 23.6799 98.1508 22.1203 97.67 21.3892C97.1893 20.6581 96.2915 19.3989 95.6751 18.5909C95.0587 17.783 94.201 16.7574 93.7692 16.3119C93.3374 15.8664 92.4889 15.0652 91.8837 14.5314C91.2784 13.9976 90.3525 13.2298 89.8261 12.8252C89.2996 12.4205 88.2661 11.7198 87.5294 11.2682C86.7927 10.8165 85.6661 10.1841 85.026 9.86283C84.3859 9.54158 83.3652 9.06559 82.7578 8.80511C82.1504 8.54461 81.1895 8.17928 80.6226 7.99326C80.0557 7.80722 79.0285 7.51677 78.3401 7.34778C77.6517 7.1788 76.5033 6.94014 75.7882 6.81744C75.0731 6.69474 73.5651 6.52185 72.4372 6.4332C70.9782 6.31855 69.8236 6.31685 68.4362 6.42727C67.3636 6.51264 65.8896 6.68644 65.1607 6.81349C64.4318 6.94054 63.2059 7.20291 62.4365 7.39653C61.6671 7.59017 60.469 7.95441 59.7741 8.20598C59.0791 8.45754 57.5771 9.11931 56.4361 9.67659C55.2952 10.2339 53.7493 11.0989 53.0007 11.5988C52.2522 12.0988 51.1751 12.8786 50.6073 13.3317C50.0394 13.7848 49.1111 14.5911 48.5443 15.1233C47.9774 15.6556 46.91 16.7954 46.1722 17.6562C45.4343 18.5171 44.3939 19.8757 43.8602 20.6754C43.3264 21.4751 42.4415 23.024 41.8937 24.1176C41.3459 25.2111 40.6805 26.6691 40.415 27.3576C40.1495 28.0461 39.7676 29.2391 39.5665 30.0086C39.3653 30.7781 39.0888 31.971 38.9521 32.6596C38.8154 33.3481 38.6048 34.6404 38.4841 35.5314C38.3044 36.8587 38.2519 40.1984 38.1938 54.0145L38.123 70.8776Z" fill="black"/>
</g>
<defs>
<clipPath id="clip0_2015_2">
<rect width="110" height="128" fill="white"/>
</clipPath>
</defs>
</svg>
