<svg width="16" height="16" viewBox="0 0 16 16" fill="none" xmlns="http://www.w3.org/2000/svg">
<path d="M0 6.3872C0 1.12734 1.12734 0 6.3872 0H9.6128C14.8727 0 16 1.12734 16 6.3872V9.6128C16 14.8727 14.8727 16 9.6128 16H6.3872C1.12734 16 0 14.8727 0 9.6128V6.3872Z" fill="#FAFAFA"/>
<path fill-rule="evenodd" clip-rule="evenodd" d="M6.1948 8.27781C5.94775 8.30914 5.78715 8.33561 5.67851 8.35686C5.56988 8.3781 5.47721 8.39028 5.47257 8.38391C5.46794 8.37753 5.46421 7.56775 5.46429 6.58438C5.4644 5.28686 5.46986 4.73162 5.48422 4.56014C5.49509 4.43018 5.5182 4.2408 5.53556 4.13929C5.55293 4.03778 5.58505 3.88537 5.60693 3.8006C5.62882 3.71583 5.67199 3.57204 5.70286 3.48107C5.73373 3.3901 5.78696 3.24832 5.82113 3.16602C5.85531 3.08371 5.91695 2.95256 5.95811 2.87459C5.99927 2.79661 6.07792 2.66091 6.1329 2.57304C6.18787 2.48516 6.28151 2.35095 6.34099 2.27478C6.40048 2.19862 6.5072 2.07292 6.57815 1.99546C6.6491 1.91799 6.79841 1.77462 6.90996 1.67686C7.02151 1.5791 7.19191 1.44621 7.28862 1.38155C7.38534 1.31689 7.5389 1.22265 7.62986 1.17214C7.72082 1.12162 7.85903 1.05258 7.937 1.01871C8.01496 0.984852 8.15672 0.929067 8.25201 0.89475C8.3473 0.860435 8.50323 0.812271 8.59853 0.787722C8.69382 0.763172 8.86392 0.728543 8.97654 0.710766C9.08916 0.69299 9.28053 0.670724 9.40181 0.661288C9.52309 0.65185 9.69674 0.648347 9.7877 0.653504C9.87866 0.658659 10.031 0.670205 10.1263 0.67916C10.2216 0.688115 10.374 0.709448 10.465 0.726565C10.5559 0.743683 10.7012 0.778 10.7879 0.802827C10.8745 0.827654 11.0269 0.876966 11.1265 0.91241C11.2261 0.947856 11.4141 1.02944 11.5443 1.09371C11.6745 1.15797 11.8765 1.27435 11.9932 1.35232C12.1099 1.43029 12.2763 1.55394 12.3629 1.62711C12.4496 1.70028 12.5917 1.83367 12.6787 1.92354C12.7658 2.01342 12.8908 2.15474 12.9567 2.23761C13.0225 2.32047 13.1178 2.45169 13.1685 2.5292C13.2192 2.60671 13.3048 2.75158 13.3586 2.85112C13.4124 2.95067 13.4954 3.12073 13.5429 3.22903C13.5905 3.33733 13.6538 3.511 13.6837 3.61497C13.7136 3.71894 13.7562 3.89261 13.7784 4.00092C13.8005 4.10922 13.8313 4.28584 13.8468 4.39342C13.8676 4.53742 13.875 4.68703 13.875 4.96053C13.875 5.22239 13.8668 5.39711 13.8471 5.55257C13.8318 5.67386 13.805 5.84243 13.7876 5.92716C13.7703 6.0119 13.731 6.16431 13.7003 6.26585C13.6697 6.3674 13.6194 6.51428 13.5886 6.59225C13.5578 6.67023 13.4947 6.81442 13.4483 6.91268C13.4019 7.01093 13.3203 7.16463 13.2669 7.25423C13.2135 7.34383 13.12 7.48319 13.0591 7.56392C12.9981 7.64465 12.8897 7.77805 12.8182 7.86036C12.7466 7.94266 12.6291 8.06763 12.557 8.13805C12.4849 8.20847 12.3636 8.31646 12.2874 8.37803C12.2112 8.4396 12.0691 8.54309 11.9716 8.60801C11.8741 8.67292 11.7061 8.7711 11.5983 8.82616C11.4904 8.88123 11.3348 8.95517 11.2525 8.99046C11.1702 9.02576 11.0246 9.07969 10.9288 9.11031C10.8331 9.14093 10.6985 9.1805 10.6296 9.19824C10.5607 9.21598 10.4228 9.24568 10.3232 9.26423C10.1496 9.29658 10.0795 9.29849 8.62215 9.31058C7.78619 9.31752 7.07032 9.32728 7.03133 9.33227C6.99235 9.33727 6.86831 9.34866 6.7557 9.35759C6.64308 9.36652 6.44816 9.38745 6.32255 9.40408C6.19694 9.42072 6.00281 9.45257 5.89115 9.47486C5.77949 9.49715 5.61292 9.53306 5.52101 9.55467C5.42909 9.57628 5.28655 9.61573 5.20426 9.64234C5.12196 9.66895 4.98375 9.7188 4.89712 9.7531C4.81049 9.78741 4.66165 9.85473 4.56635 9.9027C4.47106 9.95067 4.341 10.0214 4.27733 10.06C4.21366 10.0985 4.09201 10.1827 4.007 10.2471C3.92198 10.3115 3.79183 10.4216 3.71777 10.4919C3.64371 10.5622 3.53434 10.6776 3.47472 10.7484C3.41511 10.8191 3.33006 10.9312 3.28573 10.9975C3.24139 11.0638 3.17628 11.1752 3.14103 11.2451C3.10578 11.315 3.05659 11.4203 3.03174 11.4791C3.00688 11.5378 2.96828 11.6457 2.94596 11.7189C2.92363 11.792 2.89655 11.909 2.88578 11.9788C2.87501 12.0486 2.86694 12.1873 2.86784 12.2869C2.86886 12.3989 2.88007 12.5131 2.89722 12.5862C2.91247 12.6512 2.9446 12.7527 2.96863 12.8117C2.99265 12.8707 3.03592 12.958 3.06478 13.0057C3.09365 13.0533 3.16227 13.1416 3.21729 13.2019C3.27231 13.2622 3.36205 13.3434 3.41671 13.3824C3.47137 13.4214 3.56812 13.4772 3.6317 13.5063C3.69529 13.5354 3.79704 13.5718 3.8578 13.5872C3.92935 13.6053 4.03204 13.6157 4.14919 13.6166C4.26866 13.6175 4.37363 13.6085 4.45829 13.5901C4.5288 13.5747 4.63157 13.5438 4.68667 13.5214C4.74178 13.499 4.83603 13.4478 4.89612 13.4076C4.95621 13.3674 5.05014 13.2898 5.10484 13.2351C5.15954 13.1805 5.23167 13.0954 5.26513 13.0461C5.29858 12.9968 5.34719 12.9139 5.37315 12.8619C5.39912 12.8099 5.43536 12.7213 5.45368 12.665C5.47202 12.6087 5.49779 12.4952 5.51095 12.4129C5.52412 12.3306 5.53492 12.2166 5.53496 12.1596C5.53499 12.1025 5.53126 12.0521 5.52666 12.0475C5.52206 12.0429 5.47422 12.0511 5.42034 12.0657C5.36647 12.0804 5.17878 12.1369 5.00326 12.1913C4.78871 12.2578 4.67111 12.287 4.6444 12.2803C4.62254 12.2748 4.59689 12.2532 4.58739 12.2324C4.57277 12.2003 4.57866 12.178 4.62582 12.0871C4.65644 12.028 4.72474 11.9035 4.77759 11.8104C4.83044 11.7173 4.93763 11.5278 5.01579 11.3893C5.09396 11.2508 5.26579 10.9486 5.39765 10.7178C5.52951 10.487 5.67337 10.2318 5.71734 10.1506C5.76131 10.0695 5.81453 9.97642 5.83562 9.94384C5.86277 9.90187 5.88522 9.88459 5.91258 9.88459C5.94019 9.88459 5.9631 9.90256 5.99292 9.94761C6.01587 9.98226 6.07106 10.0762 6.11557 10.1563C6.16008 10.2365 6.2276 10.357 6.26561 10.4241C6.30362 10.4913 6.39289 10.649 6.46399 10.7746C6.5351 10.9003 6.6121 11.0357 6.63511 11.0756C6.65812 11.1155 6.75648 11.2875 6.85369 11.4578C6.9509 11.6282 7.08114 11.8576 7.14311 11.9676C7.20508 12.0776 7.25578 12.1845 7.25578 12.205C7.25578 12.2256 7.24435 12.2539 7.23037 12.2679C7.20823 12.29 7.19319 12.2908 7.11353 12.2744C7.06325 12.264 6.94799 12.2305 6.8574 12.2C6.76681 12.1695 6.61118 12.1224 6.51156 12.0954C6.41194 12.0684 6.31803 12.0429 6.30287 12.0388C6.27777 12.0319 6.2753 12.0474 6.2753 12.2126C6.2753 12.3204 6.26287 12.4668 6.24469 12.5731C6.22785 12.6716 6.19511 12.8124 6.17193 12.8858C6.14875 12.9593 6.0978 13.0832 6.0587 13.1612C6.01959 13.2392 5.94829 13.3627 5.90025 13.4357C5.85085 13.5107 5.73712 13.6448 5.63852 13.7441C5.53779 13.8456 5.41092 13.9546 5.33814 14.0023C5.26883 14.0476 5.15543 14.1123 5.08613 14.146C5.01682 14.1798 4.89633 14.2281 4.81836 14.2535C4.7404 14.2789 4.6098 14.3111 4.52814 14.3251C4.43297 14.3414 4.29726 14.3499 4.15012 14.3488C4.02387 14.3479 3.86951 14.3378 3.80709 14.3264C3.74468 14.3149 3.63209 14.2868 3.55689 14.2639C3.4817 14.241 3.36075 14.194 3.28812 14.1594C3.21549 14.1249 3.09185 14.0537 3.01337 14.0012C2.93489 13.9487 2.80921 13.8445 2.7341 13.7695C2.65898 13.6946 2.55224 13.5696 2.4969 13.4918C2.44155 13.4139 2.36221 13.2793 2.32058 13.1927C2.27895 13.106 2.22695 12.9729 2.20503 12.8969C2.1831 12.8209 2.15612 12.6968 2.14508 12.6212C2.13404 12.5457 2.125 12.381 2.125 12.2554C2.125 12.1104 2.13515 11.9663 2.15282 11.8607C2.16811 11.7692 2.20099 11.6231 2.22587 11.536C2.25075 11.449 2.29992 11.3059 2.33514 11.2181C2.37035 11.1304 2.43827 10.9822 2.48607 10.889C2.53387 10.7958 2.61461 10.6569 2.66549 10.5804C2.71636 10.5039 2.80849 10.3799 2.8702 10.3048C2.93192 10.2296 3.04466 10.1071 3.12073 10.0324C3.19681 9.95772 3.32284 9.84543 3.4008 9.78286C3.47877 9.72029 3.6347 9.60735 3.74732 9.53189C3.85994 9.45643 4.04024 9.34979 4.14799 9.2949C4.25574 9.24001 4.4223 9.16146 4.51813 9.12034C4.61396 9.07922 4.77864 9.01631 4.88409 8.98055C4.98954 8.94479 5.14193 8.89851 5.22273 8.87771C5.30353 8.8569 5.44052 8.82551 5.52714 8.80794C5.61377 8.79037 5.76262 8.76207 5.85791 8.74505C5.9532 8.72804 6.10559 8.70287 6.19655 8.68913C6.28751 8.67538 6.42218 8.65726 6.49581 8.64885C6.56945 8.64045 6.7431 8.62559 6.8817 8.61584C7.02031 8.60608 7.27901 8.59246 7.4566 8.58558C7.63419 8.57869 8.25083 8.57296 8.82691 8.57283C9.47589 8.57269 9.93626 8.56603 10.0371 8.55532C10.1267 8.54581 10.2826 8.51957 10.3836 8.49699C10.4847 8.47441 10.656 8.4243 10.7642 8.38562C10.8725 8.34694 11.0536 8.26936 11.1665 8.21322C11.2795 8.15707 11.4416 8.06547 11.5269 8.00966C11.6121 7.95385 11.7483 7.85419 11.8295 7.78819C11.9107 7.72219 12.0488 7.59269 12.1363 7.50042C12.2238 7.40814 12.3405 7.27238 12.3955 7.19874C12.4505 7.12509 12.5488 6.97623 12.6141 6.86793C12.6794 6.75963 12.7712 6.58595 12.8181 6.48198C12.8651 6.37802 12.932 6.20007 12.9668 6.08654C13.0017 5.97302 13.0487 5.79229 13.0714 5.68492C13.0941 5.57755 13.1203 5.39043 13.1298 5.26909C13.1392 5.14775 13.1428 4.9386 13.1377 4.80431C13.1317 4.64613 13.1142 4.48248 13.0879 4.3396C13.0655 4.2183 13.0292 4.05526 13.0072 3.97729C12.9852 3.89931 12.9482 3.77885 12.925 3.7096C12.9017 3.64035 12.832 3.48085 12.7701 3.35516C12.7082 3.22947 12.6155 3.06265 12.564 2.98445C12.5126 2.90626 12.4166 2.77157 12.3507 2.68515C12.2847 2.59873 12.193 2.48904 12.1468 2.44139C12.1006 2.39373 12.0099 2.30803 11.9451 2.25094C11.8804 2.19384 11.7813 2.11172 11.725 2.06844C11.6687 2.02515 11.5582 1.95021 11.4794 1.9019C11.4006 1.85358 11.2801 1.78594 11.2116 1.75158C11.1431 1.71722 11.034 1.66631 10.969 1.63845C10.904 1.61058 10.8013 1.57151 10.7406 1.55161C10.68 1.53171 10.5701 1.50064 10.4965 1.48257C10.4228 1.46449 10.3 1.43897 10.2235 1.42584C10.147 1.41272 9.98574 1.39422 9.86509 1.38474C9.70904 1.37248 9.58554 1.3723 9.43715 1.38411C9.32242 1.39324 9.16476 1.41183 9.0868 1.42542C9.00883 1.43901 8.87771 1.46707 8.79541 1.48778C8.71311 1.50849 8.58496 1.54745 8.51063 1.57436C8.4363 1.60127 8.27564 1.67205 8.1536 1.73166C8.03157 1.79127 7.86621 1.88379 7.78614 1.93726C7.70608 1.99074 7.59087 2.07415 7.53014 2.12262C7.4694 2.17108 7.3701 2.25732 7.30947 2.31425C7.24885 2.37118 7.13467 2.49309 7.05575 2.58517C6.97683 2.67726 6.86555 2.82257 6.80846 2.90811C6.75137 2.99364 6.65672 3.15932 6.59813 3.27629C6.53953 3.39325 6.46836 3.5492 6.43996 3.62285C6.41156 3.69649 6.37071 3.82409 6.3492 3.9064C6.32768 3.98871 6.29811 4.1163 6.28349 4.18995C6.26886 4.26359 6.24634 4.40182 6.23343 4.49713C6.2142 4.6391 6.20859 4.99632 6.20238 6.47411L6.1948 8.27781Z" fill="black"/>
</svg>
